<?xml version="1.0" standalone="no"?>
 <!DOCTYPE svg PUBLIC "-//W3C//DTD SVG 1.1//EN" 
 "http://www.w3.org/Graphics/SVG/1.1/DTD/svg11.dtd"> 
<svg xmlns="http://www.w3.org/2000/svg" version="1.1" 
    width="29.7002cm" height="21.0007cm" viewBox="0 0 116930 82680 ">
<title>SVG Picture created as MAP3-F.Cu.svg date 2016/04/18 12:55:03 </title>
  <desc>Picture generated by PCBNEW </desc>
<g style="fill:#000000; fill-opacity:1;stroke:#000000; stroke-opacity:1;
stroke-linecap:round; stroke-linejoin:round; "
 transform="translate(0 0) scale(1 1)">
</g>
<g style="fill:#000000; fill-opacity:0.0; 
stroke:#000000; stroke-width:-0.000393701; stroke-opacity:1; 
stroke-linecap:round; stroke-linejoin:round;">
</g>
<g style="fill:#000000; fill-opacity:0.0; 
stroke:#000000; stroke-width:59.0551; stroke-opacity:1; 
stroke-linecap:round; stroke-linejoin:round;">
<path d="M62204.7 40157.5 A787.402 787.402 0.0 0 0 61417.3 40944.9 " />
<path d="M61417.3 46063 A787.402 787.402 0.0 0 0 62204.7 46850.4 " />
<path d="M70866.1 46850.4 A787.402 787.402 0.0 0 0 71653.5 46063 " />
<path d="M71653.5 40944.9 A787.402 787.402 0.0 0 0 70866.1 40157.5 " />
<path d="M61417 46062
L61417 40944
" />
<path d="M70866 46850
L62204 46850
" />
<path d="M71653 40944
L71653 46062
" />
<path d="M62204 40157
L70866 40157
" />
</g>
<g style="fill:#000000; fill-opacity:1.0; 
stroke:#000000; stroke-width:0; stroke-opacity:1; 
stroke-linecap:round; stroke-linejoin:round;">
<circle cx="65157.5" cy="41232.3" r="350" /> 
</g>
<g style="fill:#000000; fill-opacity:1.0; 
stroke:#000000; stroke-width:20; stroke-opacity:1; 
stroke-linecap:round; stroke-linejoin:round;">
</g>
<g style="fill:#000000; fill-opacity:1.0; 
stroke:#000000; stroke-width:0; stroke-opacity:1; 
stroke-linecap:round; stroke-linejoin:round;">
<circle cx="65157.5" cy="42232.3" r="350" /> 
</g>
<g style="fill:#000000; fill-opacity:1.0; 
stroke:#000000; stroke-width:20; stroke-opacity:1; 
stroke-linecap:round; stroke-linejoin:round;">
</g>
<g style="fill:#000000; fill-opacity:1.0; 
stroke:#000000; stroke-width:0; stroke-opacity:1; 
stroke-linecap:round; stroke-linejoin:round;">
<circle cx="61992.1" cy="43503.9" r="350" /> 
</g>
<g style="fill:#000000; fill-opacity:1.0; 
stroke:#000000; stroke-width:20; stroke-opacity:1; 
stroke-linecap:round; stroke-linejoin:round;">
</g>
<g style="fill:#000000; fill-opacity:1.0; 
stroke:#000000; stroke-width:0; stroke-opacity:1; 
stroke-linecap:round; stroke-linejoin:round;">
<circle cx="62992.1" cy="44503.9" r="350" /> 
</g>
<g style="fill:#000000; fill-opacity:1.0; 
stroke:#000000; stroke-width:20; stroke-opacity:1; 
stroke-linecap:round; stroke-linejoin:round;">
</g>
<g style="fill:#000000; fill-opacity:1.0; 
stroke:#000000; stroke-width:0; stroke-opacity:1; 
stroke-linecap:round; stroke-linejoin:round;">
<circle cx="62992.1" cy="42503.9" r="350" /> 
</g>
<g style="fill:#000000; fill-opacity:1.0; 
stroke:#000000; stroke-width:20; stroke-opacity:1; 
stroke-linecap:round; stroke-linejoin:round;">
</g>
<g style="fill:#000000; fill-opacity:1.0; 
stroke:#000000; stroke-width:0; stroke-opacity:1; 
stroke-linecap:round; stroke-linejoin:round;">
<circle cx="62992.1" cy="43503.9" r="350" /> 
</g>
<g style="fill:#000000; fill-opacity:1.0; 
stroke:#000000; stroke-width:20; stroke-opacity:1; 
stroke-linecap:round; stroke-linejoin:round;">
</g>
<g style="fill:#000000; fill-opacity:1.0; 
stroke:#000000; stroke-width:0; stroke-opacity:1; 
stroke-linecap:round; stroke-linejoin:round;">
<circle cx="61992.1" cy="44503.9" r="350" /> 
</g>
<g style="fill:#000000; fill-opacity:1.0; 
stroke:#000000; stroke-width:20; stroke-opacity:1; 
stroke-linecap:round; stroke-linejoin:round;">
</g>
<g style="fill:#000000; fill-opacity:1.0; 
stroke:#000000; stroke-width:0; stroke-opacity:1; 
stroke-linecap:round; stroke-linejoin:round;">
<circle cx="61992.1" cy="42503.9" r="350" /> 
</g>
<g style="fill:#000000; fill-opacity:1.0; 
stroke:#000000; stroke-width:20; stroke-opacity:1; 
stroke-linecap:round; stroke-linejoin:round;">
</g>
<g style="fill:#000000; fill-opacity:1.0; 
stroke:#000000; stroke-width:0; stroke-opacity:1; 
stroke-linecap:round; stroke-linejoin:round;">
<circle cx="70570.9" cy="41503.9" r="350" /> 
</g>
<g style="fill:#000000; fill-opacity:1.0; 
stroke:#000000; stroke-width:20; stroke-opacity:1; 
stroke-linecap:round; stroke-linejoin:round;">
</g>
<g style="fill:#000000; fill-opacity:1.0; 
stroke:#000000; stroke-width:0; stroke-opacity:1; 
stroke-linecap:round; stroke-linejoin:round;">
<circle cx="70570.9" cy="45503.9" r="350" /> 
</g>
<g style="fill:#000000; fill-opacity:1.0; 
stroke:#000000; stroke-width:20; stroke-opacity:1; 
stroke-linecap:round; stroke-linejoin:round;">
</g>
<g style="fill:#000000; fill-opacity:1.0; 
stroke:#000000; stroke-width:0; stroke-opacity:1; 
stroke-linecap:round; stroke-linejoin:round;">
<circle cx="67913.4" cy="42232.3" r="350" /> 
</g>
<g style="fill:#000000; fill-opacity:1.0; 
stroke:#000000; stroke-width:20; stroke-opacity:1; 
stroke-linecap:round; stroke-linejoin:round;">
</g>
<g style="fill:#000000; fill-opacity:1.0; 
stroke:#000000; stroke-width:0; stroke-opacity:1; 
stroke-linecap:round; stroke-linejoin:round;">
<circle cx="67913.4" cy="41232.3" r="350" /> 
</g>
<g style="fill:#000000; fill-opacity:1.0; 
stroke:#000000; stroke-width:20; stroke-opacity:1; 
stroke-linecap:round; stroke-linejoin:round;">
</g>
<g style="fill:#000000; fill-opacity:1.0; 
stroke:#000000; stroke-width:0; stroke-opacity:1; 
stroke-linecap:round; stroke-linejoin:round;">
<circle cx="67913.4" cy="45775.6" r="350" /> 
</g>
<g style="fill:#000000; fill-opacity:1.0; 
stroke:#000000; stroke-width:20; stroke-opacity:1; 
stroke-linecap:round; stroke-linejoin:round;">
</g>
<g style="fill:#000000; fill-opacity:1.0; 
stroke:#000000; stroke-width:0; stroke-opacity:1; 
stroke-linecap:round; stroke-linejoin:round;">
<circle cx="67913.4" cy="44775.6" r="350" /> 
</g>
<g style="fill:#000000; fill-opacity:1.0; 
stroke:#000000; stroke-width:20; stroke-opacity:1; 
stroke-linecap:round; stroke-linejoin:round;">
</g>
<g style="fill:#000000; fill-opacity:1.0; 
stroke:#000000; stroke-width:0; stroke-opacity:1; 
stroke-linecap:round; stroke-linejoin:round;">
<circle cx="65157.5" cy="44775.6" r="350" /> 
</g>
<g style="fill:#000000; fill-opacity:1.0; 
stroke:#000000; stroke-width:20; stroke-opacity:1; 
stroke-linecap:round; stroke-linejoin:round;">
</g>
<g style="fill:#000000; fill-opacity:1.0; 
stroke:#000000; stroke-width:0; stroke-opacity:1; 
stroke-linecap:round; stroke-linejoin:round;">
<circle cx="65157.5" cy="45775.6" r="350" /> 
</g>
<g style="fill:#000000; fill-opacity:1.0; 
stroke:#000000; stroke-width:20; stroke-opacity:1; 
stroke-linecap:round; stroke-linejoin:round;">
</g>
<g style="fill:#000000; fill-opacity:1.0; 
stroke:#000000; stroke-width:0; stroke-opacity:1; 
stroke-linecap:round; stroke-linejoin:round;">
<circle cx="64035.4" cy="43503.9" r="748.031" /> 
</g>
<g style="fill:#000000; fill-opacity:1.0; 
stroke:#000000; stroke-width:20; stroke-opacity:1; 
stroke-linecap:round; stroke-linejoin:round;">
</g>
<g style="fill:#000000; fill-opacity:1.0; 
stroke:#000000; stroke-width:0; stroke-opacity:1; 
stroke-linecap:round; stroke-linejoin:round;">
<circle cx="69035.4" cy="43503.9" r="748.031" /> 
</g>
<g style="fill:#000000; fill-opacity:1.0; 
stroke:#000000; stroke-width:20; stroke-opacity:1; 
stroke-linecap:round; stroke-linejoin:round;">
</g>
<g style="fill:#000000; fill-opacity:1.0; 
stroke:#000000; stroke-width:0; stroke-opacity:1; 
stroke-linecap:round; stroke-linejoin:round;">
<circle cx="67535.4" cy="43503.9" r="350" /> 
</g>
<g style="fill:#000000; fill-opacity:1.0; 
stroke:#000000; stroke-width:20; stroke-opacity:1; 
stroke-linecap:round; stroke-linejoin:round;">
</g>
<g style="fill:#000000; fill-opacity:1.0; 
stroke:#000000; stroke-width:0; stroke-opacity:1; 
stroke-linecap:round; stroke-linejoin:round;">
<circle cx="65535.4" cy="43503.9" r="350" /> 
</g>
<g style="fill:#000000; fill-opacity:1.0; 
stroke:#000000; stroke-width:20; stroke-opacity:1; 
stroke-linecap:round; stroke-linejoin:round;">
</g>
<g style="fill:#000000; fill-opacity:1.0; 
stroke:#000000; stroke-width:393.701; stroke-opacity:1; 
stroke-linecap:round; stroke-linejoin:round;">
</g>
<g style="fill:#000000; fill-opacity:0.0; 
stroke:#000000; stroke-width:393.701; stroke-opacity:1; 
stroke-linecap:round; stroke-linejoin:round;">
<path d="M65157 41232
L64263 41232
" />
<path d="M62992 42503
L61992 42503
" />
<path d="M64263 41232
L62992 42503
" />
<path d="M65157 42232
L65657 42232
" />
<path d="M66240 42814
L66240 44192
" />
<path d="M65657 42232
L66240 42814
" />
<path d="M65157 42232
L65460 42232
" />
<path d="M65657 44775
L65157 44775
" />
<path d="M66240 44192
L65657 44775
" />
<path d="M65157 45775
L65543 45775
" />
<path d="M67527 45775
L67913 45775
" />
<path d="M66732 44980
L67527 45775
" />
<path d="M66338 44980
L66732 44980
" />
<path d="M65543 45775
L66338 44980
" />
<path d="M67913 42232
L67413 42232
" />
<path d="M66830 42814
L66830 44291
" />
<path d="M67413 42232
L66830 42814
" />
<path d="M67913 42232
L67610 42232
" />
<path d="M67314 44775
L67913 44775
" />
<path d="M66830 44291
L67314 44775
" />
<path d="M69456 41503
L70570 41503
" />
<path d="M67913 41232
L69185 41232
" />
<path d="M69185 41232
L69456 41503
" />
<path d="M65535 43503
L64035 43503
" />
<path d="M62992 44503
L61992 44503
" />
<path d="M62992 44503
L62992 43503
" />
<path d="M62992 43503
L64035 43503
" />
<path d="M61992 43503
L62992 43503
" />
<path d="M69035 43503
L70003 43503
" />
<path d="M70003 43503
L70570 44070
" />
<path d="M67535 43503
L69035 43503
" />
<path d="M70570 44070
L70570 45503
" />
</g>
<g style="fill:#000000; fill-opacity:1.0; 
stroke:#000000; stroke-width:98.4252; stroke-opacity:1; 
stroke-linecap:round; stroke-linejoin:round;">
<polyline style="fill-rule:evenodd;"
points="70965,40444
71060,40472
71148,40519
71225,40582
71289,40659
71336,40747
71366,40842
71377,40954
71377,46049
71366,46162
71338,46257
71291,46345
71228,46422
71151,46486
71063,46533
70968,46563
70857,46574
62218,46574
62105,46563
62010,46534
61922,46488
61845,46425
61781,46348
61734,46260
61704,46165
61692,46053
61692,45051
61881,45240
62020,45101
62028,45101
62144,45083
62187,45070
62227,44986
62756,44986
62797,45070
62911,45097
63028,45101
63144,45083
63187,45070
63227,44986
62992,44751
62756,44986
62227,44986
61992,44751
61868,44875
61692,44699
61692,44555
61744,44503
62239,44503
62421,44686
62425,44699
62443,44707
62475,44739
62492,44731
62509,44739
62541,44707
62558,44699
62561,44687
62744,44503
63239,44503
63475,44739
63558,44699
63585,44584
63589,44467
63575,44376
63692,44376
63793,44473
63987,44501
64182,44491
64277,44473
64378,44376
64035,44032
63692,44376
63575,44376
63571,44351
63558,44308
63475,44268
63239,44503
62744,44503
62562,44321
62558,44308
62541,44300
62509,44268
62492,44276
62475,44268
62443,44300
62425,44308
62423,44320
62239,44503
61744,44503
61692,44452
61692,44308
61821,44179
61881,44240
61929,44193
61992,44256
62174,44074
62187,44070
62195,44052
62227,44020
62219,44003
62227,43986
62756,43986
62764,44003
62756,44020
62788,44052
62797,44070
62808,44072
62992,44256
63174,44074
63187,44070
63195,44052
63227,44020
63219,44003
63227,43986
63195,43954
63187,43937
63175,43934
62992,43751
62809,43933
62797,43937
62788,43954
62756,43986
62227,43986
62195,43954
62187,43937
62175,43934
61992,43751
61929,43814
61881,43767
61821,43828
61692,43699
61692,43555
61744,43503
62239,43503
62421,43686
62425,43699
62443,43707
62475,43739
62492,43731
62509,43739
62541,43707
62558,43699
62561,43687
62744,43503
62562,43321
62558,43308
62541,43300
62509,43268
62492,43276
62475,43268
62443,43300
62425,43308
62423,43320
62239,43503
61744,43503
61692,43452
61692,43308
61868,43132
61992,43256
62176,43071
62262,43038
62360,42975
62391,42946
62591,42946
62603,42960
62699,43026
62807,43073
62809,43074
62992,43256
63076,43171
63115,43210
63066,43262
63037,43455
63047,43651
63066,43745
63163,43847
63373,43637
63475,43739
63558,43699
63585,43584
63588,43503
64564,43503
64907,43847
65004,43745
65008,43718
65052,43739
65287,43503
65052,43268
65009,43288
65004,43262
64907,43160
64564,43503
63588,43503
63589,43467
63571,43351
63566,43335
63981,42920
64035,42974
64378,42631
64277,42534
64083,42506
63887,42515
63793,42534
63741,42584
63642,42484
63586,42540
63586,42535
64447,41675
64756,41675
64769,41688
64832,41732
64782,41765
64698,41847
64632,41943
64586,42051
64562,42165
64560,42282
64581,42397
64624,42506
64688,42604
64769,42688
64865,42755
64972,42801
65086,42827
65203,42829
65318,42809
65427,42766
65512,42713
65605,42807
65506,42906
65498,42906
65383,42924
65340,42937
65299,43020
65535,43256
65659,43132
65797,43270
65797,43489
65782,43503
65797,43518
65797,43737
65659,43875
65535,43751
65299,43986
65340,44070
65454,44097
65504,44099
65605,44200
65511,44295
65442,44248
65334,44203
65220,44179
65103,44179
64988,44201
64879,44244
64782,44308
64698,44390
64632,44487
64586,44594
64562,44708
64560,44825
64581,44940
64624,45049
64688,45147
64769,45231
64832,45275
64782,45308
64698,45390
64632,45487
64586,45594
64562,45708
64560,45825
64581,45940
64624,46049
64688,46147
64769,46231
64865,46298
64972,46345
65086,46370
65203,46372
65318,46352
65427,46310
65526,46247
65558,46217
65584,46214
65624,46210
65627,46210
65629,46210
65668,46198
65707,46186
65709,46185
65712,46185
65748,46165
65784,46147
65786,46145
65788,46144
65820,46118
65852,46093
65855,46089
65855,46089
65855,46089
65856,46088
66522,45423
66548,45423
67214,46088
67245,46114
67277,46141
67279,46142
67281,46143
67317,46162
67353,46182
67355,46183
67357,46184
67396,46196
67435,46208
67437,46209
67440,46209
67480,46213
67511,46217
67525,46231
67621,46298
67728,46345
67842,46370
67959,46372
68074,46352
68183,46310
68282,46247
68366,46166
68434,46071
68481,45964
68507,45850
68509,45717
68486,45602
68442,45494
68377,45397
68295,45314
68238,45275
68282,45247
68366,45166
68434,45071
68481,44964
68507,44850
68509,44717
68486,44602
68442,44494
68377,44397
68295,44314
68198,44248
68090,44203
67975,44179
67859,44179
67744,44201
67635,44244
67538,44308
67513,44332
67498,44332
67273,44107
67273,44040
67350,44073
67464,44098
67581,44101
67696,44080
67805,44038
67904,43975
67934,43946
68141,43946
68146,43960
68252,44124
68388,44264
68548,44375
68726,44453
68917,44495
69112,44499
69304,44466
69485,44395
69650,44291
69791,44156
69890,44016
70127,44254
70127,45103
70112,45118
70046,45215
69999,45322
69975,45437
69974,45554
69995,45669
70038,45777
70101,45875
70182,45960
70278,46026
70385,46073
70499,46098
70616,46101
70731,46080
70840,46038
70939,45975
71024,45895
71091,45799
71139,45692
71165,45579
71166,45445
71144,45330
71099,45222
71035,45125
71013,45103
71013,44070
71009,44030
71006,43989
71005,43987
71005,43984
70993,43945
70982,43906
70981,43904
70980,43902
70961,43865
70942,43829
70940,43827
70939,43825
70913,43794
70888,43762
70885,43758
70885,43758
70885,43758
70884,43757
70317,43190
70285,43164
70254,43138
70252,43137
70250,43135
70214,43116
70178,43096
70176,43096
70174,43095
70135,43083
70096,43070
70093,43070
70091,43069
70050,43065
70010,43061
70005,43061
70005,43061
70005,43061
70003,43061
69928,43061
69917,43034
69809,42872
69672,42734
69510,42625
69330,42549
69139,42510
68944,42509
68753,42545
68572,42618
68409,42725
68270,42861
68160,43022
68143,43061
67935,43061
67917,43042
67820,42977
67712,42931
67598,42908
67481,42907
67366,42929
67326,42945
67559,42712
67621,42755
67728,42801
67842,42827
67959,42829
68074,42809
68183,42766
68282,42704
68366,42623
68434,42528
68481,42421
68507,42307
68509,42173
68486,42059
68442,41951
68377,41853
68295,41770
68238,41732
68282,41704
68312,41675
69001,41675
69143,41817
69175,41843
69206,41869
69208,41870
69210,41871
69246,41891
69282,41911
69284,41911
69286,41912
69325,41924
69364,41937
69366,41937
69369,41938
69409,41942
69450,41946
69455,41946
69455,41946
69455,41946
69456,41946
70169,41946
70182,41960
70278,42026
70385,42073
70499,42098
70616,42101
70731,42080
70840,42038
70939,41975
71024,41895
71091,41799
71139,41692
71165,41579
71166,41445
71144,41330
71099,41222
71035,41125
70952,41042
70855,40977
70747,40931
70633,40908
70516,40907
70401,40929
70293,40973
70195,41037
70171,41061
69640,41061
69498,40919
69466,40893
69435,40866
69433,40865
69431,40864
69395,40844
69359,40825
69357,40824
69355,40823
69316,40811
69277,40799
69274,40798
69272,40798
69231,40793
69191,40789
69186,40789
69186,40789
69186,40789
69185,40789
68313,40789
68295,40770
68198,40705
68090,40660
67975,40636
67859,40635
67744,40657
67635,40701
67538,40765
67454,40847
67388,40943
67342,41051
67318,41165
67316,41282
67337,41397
67380,41506
67443,41604
67525,41688
67588,41732
67538,41765
67513,41789
67413,41789
67372,41793
67331,41796
67329,41797
67327,41797
67288,41809
67248,41821
67246,41822
67244,41822
67208,41841
67172,41860
67170,41862
67168,41863
67136,41889
67104,41914
67101,41917
67101,41918
67101,41918
67100,41919
66535,42483
65970,41919
65939,41893
65907,41866
65905,41865
65903,41864
65867,41844
65831,41825
65829,41824
65827,41823
65788,41811
65749,41799
65747,41798
65745,41798
65704,41793
65663,41789
65659,41789
65659,41789
65658,41789
65657,41789
65557,41789
65539,41770
65482,41732
65526,41704
65610,41623
65678,41528
65725,41421
65751,41307
65753,41173
65730,41059
65686,40951
65621,40853
65539,40770
65442,40705
65334,40660
65220,40636
65103,40635
64988,40657
64879,40701
64782,40765
64757,40789
64263,40789
64223,40793
64182,40796
64180,40797
64177,40797
64138,40809
64099,40821
64097,40822
64094,40822
64058,40841
64022,40860
64020,40862
64018,40863
63986,40889
63954,40914
63951,40917
63951,40918
63951,40918
63950,40919
62962,41907
62937,41907
62823,41929
62714,41973
62616,42037
62592,42061
62392,42061
62373,42042
62276,41977
62169,41931
62054,41908
61937,41907
61823,41929
61714,41973
61692,41987
61692,40958
61703,40845
61732,40750
61779,40662
61842,40585
61919,40521
62006,40474
62102,40444
62213,40433
70852,40433
70965,40444
" /> 
</g>
<g style="fill:#FFFFFF; fill-opacity:1.0; 
stroke:#FFFFFF; stroke-width:98.4252; stroke-opacity:1; 
stroke-linecap:round; stroke-linejoin:round;">
</g>
<g style="fill:#FFFFFF; fill-opacity:1.0; 
stroke:#FFFFFF; stroke-width:0; stroke-opacity:1; 
stroke-linecap:round; stroke-linejoin:round;">
<circle cx="65157.5" cy="41232.3" r="68.8976" /> 
</g>
<g style="fill:#FFFFFF; fill-opacity:1.0; 
stroke:#FFFFFF; stroke-width:20; stroke-opacity:1; 
stroke-linecap:round; stroke-linejoin:round;">
</g>
<g style="fill:#FFFFFF; fill-opacity:1.0; 
stroke:#FFFFFF; stroke-width:0; stroke-opacity:1; 
stroke-linecap:round; stroke-linejoin:round;">
<circle cx="65157.5" cy="42232.3" r="68.8976" /> 
</g>
<g style="fill:#FFFFFF; fill-opacity:1.0; 
stroke:#FFFFFF; stroke-width:20; stroke-opacity:1; 
stroke-linecap:round; stroke-linejoin:round;">
</g>
<g style="fill:#FFFFFF; fill-opacity:1.0; 
stroke:#FFFFFF; stroke-width:0; stroke-opacity:1; 
stroke-linecap:round; stroke-linejoin:round;">
<circle cx="61992.1" cy="43503.9" r="68.8976" /> 
</g>
<g style="fill:#FFFFFF; fill-opacity:1.0; 
stroke:#FFFFFF; stroke-width:20; stroke-opacity:1; 
stroke-linecap:round; stroke-linejoin:round;">
</g>
<g style="fill:#FFFFFF; fill-opacity:1.0; 
stroke:#FFFFFF; stroke-width:0; stroke-opacity:1; 
stroke-linecap:round; stroke-linejoin:round;">
<circle cx="62992.1" cy="44503.9" r="68.8976" /> 
</g>
<g style="fill:#FFFFFF; fill-opacity:1.0; 
stroke:#FFFFFF; stroke-width:20; stroke-opacity:1; 
stroke-linecap:round; stroke-linejoin:round;">
</g>
<g style="fill:#FFFFFF; fill-opacity:1.0; 
stroke:#FFFFFF; stroke-width:0; stroke-opacity:1; 
stroke-linecap:round; stroke-linejoin:round;">
<circle cx="62992.1" cy="42503.9" r="68.8976" /> 
</g>
<g style="fill:#FFFFFF; fill-opacity:1.0; 
stroke:#FFFFFF; stroke-width:20; stroke-opacity:1; 
stroke-linecap:round; stroke-linejoin:round;">
</g>
<g style="fill:#FFFFFF; fill-opacity:1.0; 
stroke:#FFFFFF; stroke-width:0; stroke-opacity:1; 
stroke-linecap:round; stroke-linejoin:round;">
<circle cx="62992.1" cy="43503.9" r="68.8976" /> 
</g>
<g style="fill:#FFFFFF; fill-opacity:1.0; 
stroke:#FFFFFF; stroke-width:20; stroke-opacity:1; 
stroke-linecap:round; stroke-linejoin:round;">
</g>
<g style="fill:#FFFFFF; fill-opacity:1.0; 
stroke:#FFFFFF; stroke-width:0; stroke-opacity:1; 
stroke-linecap:round; stroke-linejoin:round;">
<circle cx="61992.1" cy="44503.9" r="68.8976" /> 
</g>
<g style="fill:#FFFFFF; fill-opacity:1.0; 
stroke:#FFFFFF; stroke-width:20; stroke-opacity:1; 
stroke-linecap:round; stroke-linejoin:round;">
</g>
<g style="fill:#FFFFFF; fill-opacity:1.0; 
stroke:#FFFFFF; stroke-width:0; stroke-opacity:1; 
stroke-linecap:round; stroke-linejoin:round;">
<circle cx="61992.1" cy="42503.9" r="68.8976" /> 
</g>
<g style="fill:#FFFFFF; fill-opacity:1.0; 
stroke:#FFFFFF; stroke-width:20; stroke-opacity:1; 
stroke-linecap:round; stroke-linejoin:round;">
</g>
<g style="fill:#FFFFFF; fill-opacity:1.0; 
stroke:#FFFFFF; stroke-width:0; stroke-opacity:1; 
stroke-linecap:round; stroke-linejoin:round;">
<circle cx="70570.9" cy="41503.9" r="68.8976" /> 
</g>
<g style="fill:#FFFFFF; fill-opacity:1.0; 
stroke:#FFFFFF; stroke-width:20; stroke-opacity:1; 
stroke-linecap:round; stroke-linejoin:round;">
</g>
<g style="fill:#FFFFFF; fill-opacity:1.0; 
stroke:#FFFFFF; stroke-width:0; stroke-opacity:1; 
stroke-linecap:round; stroke-linejoin:round;">
<circle cx="70570.9" cy="45503.9" r="68.8976" /> 
</g>
<g style="fill:#FFFFFF; fill-opacity:1.0; 
stroke:#FFFFFF; stroke-width:20; stroke-opacity:1; 
stroke-linecap:round; stroke-linejoin:round;">
</g>
<g style="fill:#FFFFFF; fill-opacity:1.0; 
stroke:#FFFFFF; stroke-width:0; stroke-opacity:1; 
stroke-linecap:round; stroke-linejoin:round;">
<circle cx="67913.4" cy="42232.3" r="68.8976" /> 
</g>
<g style="fill:#FFFFFF; fill-opacity:1.0; 
stroke:#FFFFFF; stroke-width:20; stroke-opacity:1; 
stroke-linecap:round; stroke-linejoin:round;">
</g>
<g style="fill:#FFFFFF; fill-opacity:1.0; 
stroke:#FFFFFF; stroke-width:0; stroke-opacity:1; 
stroke-linecap:round; stroke-linejoin:round;">
<circle cx="67913.4" cy="41232.3" r="68.8976" /> 
</g>
<g style="fill:#FFFFFF; fill-opacity:1.0; 
stroke:#FFFFFF; stroke-width:20; stroke-opacity:1; 
stroke-linecap:round; stroke-linejoin:round;">
</g>
<g style="fill:#FFFFFF; fill-opacity:1.0; 
stroke:#FFFFFF; stroke-width:0; stroke-opacity:1; 
stroke-linecap:round; stroke-linejoin:round;">
<circle cx="67913.4" cy="45775.6" r="68.8976" /> 
</g>
<g style="fill:#FFFFFF; fill-opacity:1.0; 
stroke:#FFFFFF; stroke-width:20; stroke-opacity:1; 
stroke-linecap:round; stroke-linejoin:round;">
</g>
<g style="fill:#FFFFFF; fill-opacity:1.0; 
stroke:#FFFFFF; stroke-width:0; stroke-opacity:1; 
stroke-linecap:round; stroke-linejoin:round;">
<circle cx="67913.4" cy="44775.6" r="68.8976" /> 
</g>
<g style="fill:#FFFFFF; fill-opacity:1.0; 
stroke:#FFFFFF; stroke-width:20; stroke-opacity:1; 
stroke-linecap:round; stroke-linejoin:round;">
</g>
<g style="fill:#FFFFFF; fill-opacity:1.0; 
stroke:#FFFFFF; stroke-width:0; stroke-opacity:1; 
stroke-linecap:round; stroke-linejoin:round;">
<circle cx="65157.5" cy="44775.6" r="68.8976" /> 
</g>
<g style="fill:#FFFFFF; fill-opacity:1.0; 
stroke:#FFFFFF; stroke-width:20; stroke-opacity:1; 
stroke-linecap:round; stroke-linejoin:round;">
</g>
<g style="fill:#FFFFFF; fill-opacity:1.0; 
stroke:#FFFFFF; stroke-width:0; stroke-opacity:1; 
stroke-linecap:round; stroke-linejoin:round;">
<circle cx="65157.5" cy="45775.6" r="68.8976" /> 
</g>
<g style="fill:#FFFFFF; fill-opacity:1.0; 
stroke:#FFFFFF; stroke-width:20; stroke-opacity:1; 
stroke-linecap:round; stroke-linejoin:round;">
</g>
<g style="fill:#FFFFFF; fill-opacity:1.0; 
stroke:#FFFFFF; stroke-width:0; stroke-opacity:1; 
stroke-linecap:round; stroke-linejoin:round;">
<circle cx="64035.4" cy="43503.9" r="68.8976" /> 
</g>
<g style="fill:#FFFFFF; fill-opacity:1.0; 
stroke:#FFFFFF; stroke-width:20; stroke-opacity:1; 
stroke-linecap:round; stroke-linejoin:round;">
</g>
<g style="fill:#FFFFFF; fill-opacity:1.0; 
stroke:#FFFFFF; stroke-width:0; stroke-opacity:1; 
stroke-linecap:round; stroke-linejoin:round;">
<circle cx="69035.4" cy="43503.9" r="68.8976" /> 
</g>
<g style="fill:#FFFFFF; fill-opacity:1.0; 
stroke:#FFFFFF; stroke-width:20; stroke-opacity:1; 
stroke-linecap:round; stroke-linejoin:round;">
</g>
<g style="fill:#FFFFFF; fill-opacity:1.0; 
stroke:#FFFFFF; stroke-width:0; stroke-opacity:1; 
stroke-linecap:round; stroke-linejoin:round;">
<circle cx="67535.4" cy="43503.9" r="68.8976" /> 
</g>
<g style="fill:#FFFFFF; fill-opacity:1.0; 
stroke:#FFFFFF; stroke-width:20; stroke-opacity:1; 
stroke-linecap:round; stroke-linejoin:round;">
</g>
<g style="fill:#FFFFFF; fill-opacity:1.0; 
stroke:#FFFFFF; stroke-width:0; stroke-opacity:1; 
stroke-linecap:round; stroke-linejoin:round;">
<circle cx="65535.4" cy="43503.9" r="68.8976" /> 
</g>
<g style="fill:#FFFFFF; fill-opacity:1.0; 
stroke:#FFFFFF; stroke-width:20; stroke-opacity:1; 
stroke-linecap:round; stroke-linejoin:round;">
</g>
<g style="fill:#000000; fill-opacity:1.0; 
stroke:#000000; stroke-width:20; stroke-opacity:1; 
stroke-linecap:round; stroke-linejoin:round;">
</g> 
</svg>
